# xmcd
#
# Track frame offsets:
#	150
#	12137
#	39350
#	68830
#	96927
#	124702
#	148537
#	172384
#	194622
#	210885
#	225970
#	260220
#	281777
#	304580
#
# Disc length: 4418 seconds
#
# Revision: 3
# Processed by: cddbd v1.5.2PL0 Copyright (c) Steve Scherf et al.
# Submitted via: audiograbber 1.83.01
#
DISCID=c711400e
DTITLE=Sampler Jazz - New spirits in jazz - Part 2
DYEAR=1996
DGENRE=Jazz
TTITLE0=Lauer, Christof - In a sentimental mood
TTITLE1=Evans, Bill - Escape
TTITLE2=Triton - Vivid dreams
TTITLE3=Bojan Z Quartet - Night thing
TTITLE4=Zawinul, Joe - Waraya
TTITLE5=Hammond, Jon - White onions
TTITLE6=Apfelbaum, Peter - Phoenix hill
TTITLE7=Holzman Band, Adam - Bully 4 u
TTITLE8=Matalex - Like the morning sunrise
TTITLE9=Müller, Henriette - Reggamania
TTITLE10=Sheppard, Andy and Nana Vasconcelos and Steve Lodder - Where we going
TTITLE11=Bargain Hunters, The - Chunks
TTITLE12=Romano, Aldo and Louis Sclavis and Henri Texier - Annobon
TTITLE13=Shrieve, Michael - Palace of dreams
EXTD=
EXTT0=
EXTT1=
EXTT2=
EXTT3=
EXTT4=
EXTT5=
EXTT6=
EXTT7=
EXTT8=
EXTT9=
EXTT10=
EXTT11=
EXTT12=
EXTT13=
PLAYORDER=
